<?xml version="1.0" encoding="UTF-8" standalone="no"?>
<!-- Created with Inkscape (http://www.inkscape.org/) -->

<svg
   xmlns:dc="http://purl.org/dc/elements/1.1/"
   xmlns:cc="http://creativecommons.org/ns#"
   xmlns:rdf="http://www.w3.org/1999/02/22-rdf-syntax-ns#"
   xmlns:svg="http://www.w3.org/2000/svg"
   xmlns="http://www.w3.org/2000/svg"
   version="1.1"
   width="23.969339"
   height="24.380503"
   id="svg7359">
  <defs
     id="defs7361" />
  <metadata
     id="metadata7364">
    <rdf:RDF>
      <cc:Work
         rdf:about="">
        <dc:format>image/svg+xml</dc:format>
        <dc:type
           rdf:resource="http://purl.org/dc/dcmitype/StillImage" />
        <dc:title></dc:title>
      </cc:Work>
    </rdf:RDF>
  </metadata>
  <g fill="#ffffff"
     transform="translate(-233.72962,-423.02907)"
     id="layer1">
    <g
       transform="translate(125.73462,-20.780425)"
       id="refresh_1_">
      <g
         id="refresh">
        <path
           d="m 111.269,458.919 -2.896,0.05 c -0.85,-3.333 -0.285,-7.002 1.883,-10.001 3.756,-5.195 10.906,-6.515 16.277,-3.005 l 0.06,0.04 1.479,-2.045 c 0.161,-0.224 0.36,-0.19 0.442,0.071 l 1.926,6.208 c 0.082,0.263 -0.076,0.481 -0.351,0.486 l -6.498,0.112 c -0.276,0.005 -0.368,-0.174 -0.208,-0.395 l 1.447,-2.002 c -4.02,-2.584 -9.342,-1.589 -12.143,2.286 -1.771,2.449 -2.121,5.494 -1.221,8.161 l -0.197,0.034 z m 20.335,-5.817 -3.098,0.054 c 0.881,2.656 0.528,5.683 -1.234,8.119 -2.801,3.875 -8.123,4.87 -12.143,2.287 l 1.447,-2.003 c 0.16,-0.221 0.068,-0.4 -0.208,-0.395 l -6.498,0.112 c -0.274,0.005 -0.433,0.224 -0.352,0.485 l 1.927,6.209 c 0.082,0.262 0.281,0.295 0.442,0.072 l 1.479,-2.046 0.06,0.04 c 5.371,3.51 12.521,2.19 16.277,-3.005 2.154,-2.977 2.725,-6.616 1.901,-9.929 z"
           id="path2038" />
      </g>
    </g>
  </g>
</svg>
