<?xml version="1.0" encoding="UTF-8" standalone="no"?>
<!-- Created with Inkscape (http://www.inkscape.org/) -->

<svg
   xmlns:dc="http://purl.org/dc/elements/1.1/"
   xmlns:cc="http://creativecommons.org/ns#"
   xmlns:rdf="http://www.w3.org/1999/02/22-rdf-syntax-ns#"
   xmlns:svg="http://www.w3.org/2000/svg"
   xmlns="http://www.w3.org/2000/svg"
   xmlns:xlink="http://www.w3.org/1999/xlink"
   xmlns:sodipodi="http://sodipodi.sourceforge.net/DTD/sodipodi-0.dtd"
   xmlns:inkscape="http://www.inkscape.org/namespaces/inkscape"
   id="svg11037"
   height="96"
   width="96"
   version="1.1"
   inkscape:version="0.48.5 r10040"
   sodipodi:docname="facebook.svg">
  <sodipodi:namedview
     pagecolor="#ffffff"
     bordercolor="#666666"
     borderopacity="1"
     objecttolerance="10"
     gridtolerance="10"
     guidetolerance="10"
     inkscape:pageopacity="0"
     inkscape:pageshadow="2"
     inkscape:window-width="1366"
     inkscape:window-height="718"
     id="namedview14"
     showgrid="false"
     inkscape:zoom="2.4583333"
     inkscape:cx="-15.254238"
     inkscape:cy="47.999999"
     inkscape:window-x="0"
     inkscape:window-y="24"
     inkscape:window-maximized="1"
     inkscape:current-layer="svg11037" />
  <defs
     id="defs11039">
    <linearGradient
       id="linearGradient11642"
       y2="1046.1"
       gradientUnits="userSpaceOnUse"
       y1="962.62"
       gradientTransform="matrix(1.15,0,0,1.15,-7.1999,-150.65)"
       x2="48"
       x1="48">
      <stop
         id="stop3702-1-3"
         style="stop-color:#2e4f84"
         offset="0" />
      <stop
         id="stop3704-8-8"
         style="stop-color:#4c77c5"
         offset="1" />
    </linearGradient>
    <clipPath
       id="clipPath3009"
       clipPathUnits="userSpaceOnUse">
      <path
         id="path3011"
         style="opacity:.15;fill:#fff"
         d="m-2 956.36h-96v33.562l96 25.687v-59.25z" />
    </clipPath>
    <linearGradient
       inkscape:collect="always"
       xlink:href="#linearGradient11642"
       id="linearGradient2994"
       gradientUnits="userSpaceOnUse"
       gradientTransform="matrix(1.15,0,0,1.15,-7.1999,-1107.01)"
       x1="48"
       y1="962.62"
       x2="48"
       y2="1046.1" />
  </defs>
  <metadata
     id="metadata11042">
    <rdf:RDF>
      <cc:Work
         rdf:about="">
        <dc:format>image/svg+xml</dc:format>
        <dc:type
           rdf:resource="http://purl.org/dc/dcmitype/StillImage" />
        <dc:title />
      </cc:Work>
    </rdf:RDF>
  </metadata>
  <path
     style="fill:#ffffff;fill-opacity:1;fill-rule:nonzero;stroke:#ffffff;stroke-width:3.39343596000000014;stroke-miterlimit:4;stroke-opacity:1;stroke-dasharray:none"
     d="M 12.125 3.875 C 7.5547758 3.875 3.875 7.4860314 3.875 11.96875 L 3.875 84.03125 C 3.875 88.513969 7.5547758 92.125 12.125 92.125 L 83.875 92.125 C 88.445224 92.125 92.125 88.513969 92.125 84.03125 L 92.125 11.96875 C 92.125 7.4860314 88.445224 3.875 83.875 3.875 L 12.125 3.875 z M 67.03125 12.875 L 76.71875 12.875 L 76.71875 24.96875 L 70.65625 24.96875 C 66.126732 24.96875 65.84375 26.685817 65.84375 29.84375 L 65.8125 35.3125 L 76.78125 35.3125 L 75.5 48 L 65.8125 48 L 65.8125 83.125 L 51.3125 83.125 L 51.3125 48 L 43.5 48 L 43.5 35.3125 L 51.3125 35.3125 L 51.3125 28.625 C 51.3125 18.749351 55.396815 12.875 67.03125 12.875 z "
     id="rect2988" />
</svg>
